<svg xmlns="http://www.w3.org/2000/svg" xmlns:xlink="http://www.w3.org/1999/xlink"><defs><style>
    .sprite-symbol-usage {display: none;}
    .sprite-symbol-usage:target {display: inline;}
  </style><symbol viewBox="0 0 24 24" id="close"><title> close</title><polygon points="19 6.41 17.59 5 12 10.59 6.41 5 5 6.41 10.59 12 5 17.59 6.41 19 12 13.41 17.59 19 19 17.59 13.41 12 19 6.41" /></symbol><symbol viewBox="0 0 49 53" id="ed-logo">
  <g fill="#333" fill-rule="evenodd">
    <path d="M4 12h17.026a1 1 0 0 1 1 1v5a1 1 0 0 1-1 1H11a1 1 0 0 0-1 1v8a1 1 0 0 0 1 1h7a1 1 0 0 1 1 1v4a1 1 0 0 1-1 1h-7a1 1 0 0 0-1 1v9a1 1 0 0 0 1 1h10a1 1 0 0 1 1 1v5a1 1 0 0 1-1 1H4a1 1 0 0 1-1-1V35.414a1 1 0 0 0-.293-.707L0 32l2.707-2.707A1 1 0 0 0 3 28.586V13a1 1 0 0 1 1-1zm23 0h11.928a1 1 0 0 1 .146.01C43.691 12.696 46 15.359 46 20v8.586a1 1 0 0 0 .293.707L49 32l-2.707 2.707a1 1 0 0 0-.293.707V45c0 5.333-2.333 8-7 8H27a1 1 0 0 1-1-1V35.414a1 1 0 0 0-.293-.707L23 32l2.707-2.707a1 1 0 0 0 .293-.707V13a1 1 0 0 1 1-1zm6 6a1 1 0 0 0-1 1v26a1 1 0 0 0 1 1h4c2 0 3-1 3-3V21c0-2-1-3-3-3h-4z" />
    <rect width="7" height="7" x="4" rx="2" />
    <rect width="7" height="7" x="13" rx="2" />
  </g>
</symbol></defs><use id="close-usage" xlink:href="#close" class="sprite-symbol-usage" /><use id="ed-logo-usage" xlink:href="#ed-logo" class="sprite-symbol-usage" /></svg>