<svg xmlns="http://www.w3.org/2000/svg" width="24" height="24"><title>tap</title><path d="M3.67,19.5v2.08a.42.42,0,0,0,.42.42h2.5A.42.42,0,0,0,7,21.58V19.5a.83.83,0,0,1,.83-.83h.88a2.9,2.9,0,0,0,4.07,0h2.55A1.67,1.67,0,0,0,17,20.33,1.67,1.67,0,0,0,18.67,22h1.25a.42.42,0,0,0,.42-.42V12.42a.42.42,0,0,0-.42-.42H18.67A1.67,1.67,0,0,0,17,13.67a1.67,1.67,0,0,0-1.67,1.67h-2A2.92,2.92,0,0,0,12,14V11.69a2,2,0,0,0,.35-.27,2,2,0,0,0,.56-1.12l.72-4.94a3,3,0,0,0,0-.43A2.92,2.92,0,0,0,10.76,2h0A2.92,2.92,0,0,0,7.83,4.92a3,3,0,0,0,0,.44l.74,4.94a2,2,0,0,0,.9,1.39V14a2.92,2.92,0,0,0-1.37,1.37H7.83A4.17,4.17,0,0,0,3.67,19.5Zm14.17.83V13.67a.83.83,0,0,1,.83-.83h.83v8.33h-.83a.83.83,0,0,1-.83-.83Zm-1.67-5A.83.83,0,0,1,17,14.5v5a.83.83,0,0,1-.83-.83Zm-2.79,2.5a2.6,2.6,0,0,0,.25-1.67h1.71v1.67Zm-1.61-7a1.17,1.17,0,0,1-.82.34h-.36a1.16,1.16,0,0,1-.82-.34,1.18,1.18,0,0,1-.33-.65L8.69,5.23a2.11,2.11,0,0,1,0-.3,2.08,2.08,0,0,1,2.08-2.09h0a2.09,2.09,0,0,1,2.05,2.4l-.72,4.94A1.15,1.15,0,0,1,11.76,10.82ZM10.58,12h.36l.23,0v1.73a2.88,2.88,0,0,0-.42,0,2.88,2.88,0,0,0-.42,0V12ZM8.67,16.58a2.08,2.08,0,1,1,2.08,2.08A2.09,2.09,0,0,1,8.67,16.58ZM4.5,19.5a3.34,3.34,0,0,1,3.33-3.33h0a2.6,2.6,0,0,0,.25,1.67H7.83A1.67,1.67,0,0,0,6.17,19.5v1.67H4.5Z"/></g></svg>